<svg width="21" height="26" viewBox="0 0 21 26" fill="none" xmlns="http://www.w3.org/2000/svg">
<path d="M17.4499 0.985541V3.991C16.0089 1.73716 13.595 0.404602 10.4435 0.404602C4.77914 0.404602 0.823303 4.46912 0.823303 10.2076C0.823303 15.911 4.74483 19.8727 10.4778 19.8727C13.3599 19.8727 15.5729 18.8147 17.4499 16.6627V17.2775C17.4499 21.2731 15.6062 22.8782 10.6786 22.8782C7.69557 22.8782 6.01938 21.9569 5.68434 19.9755H2.03024C2.39858 23.8005 5.38261 25.9525 10.6453 25.9525C17.6841 25.9525 20.7014 23.1856 20.7014 17.004V0.985541H17.4499ZM10.947 3.47895C15.1037 3.47895 17.6841 6.00629 17.6841 10.2076C17.6841 14.3399 15.1037 16.7994 10.947 16.7994C6.79037 16.7994 4.24228 14.3739 4.24228 10.2076C4.24228 6.00629 6.79037 3.47895 10.947 3.47895Z" fill="#06286E"/>
</svg>
